<svg xmlns="http://www.w3.org/2000/svg" viewBox="0 0 512 512">
  <defs>
    <linearGradient id="sky" x1="0" y1="0" x2="0" y2="1">
      <stop offset="0%" stop-color="#2442a8"/>
      <stop offset="65%" stop-color="#2f6ae0"/>
      <stop offset="100%" stop-color="#f08b2d"/>
    </linearGradient>
    <radialGradient id="sun" cx="50%" cy="50%" r="50%">
      <stop offset="0%" stop-color="#fff8cf"/>
      <stop offset="65%" stop-color="#ffd54a"/>
      <stop offset="100%" stop-color="#ffac2f"/>
    </radialGradient>
  </defs>

  <rect width="512" height="512" rx="112" fill="url(#sky)"/>

  <g opacity="0.88" fill="#ffd75a">
    <path d="M256 54 280 154 232 154z"/>
    <path d="M458 256 358 280 358 232z"/>
    <path d="M256 458 232 358 280 358z"/>
    <path d="M54 256 154 232 154 280z"/>
    <path d="M386 126 338 212 300 174z"/>
    <path d="M386 386 300 338 338 300z"/>
    <path d="M126 386 212 300 174 338z"/>
    <path d="M126 126 174 212 212 174z"/>
  </g>

  <circle cx="256" cy="256" r="108" fill="url(#sun)" stroke="#fff4bc" stroke-width="12"/>
  <circle cx="256" cy="256" r="54" fill="#fff1b4" opacity="0.85"/>

  <path d="M176 316c22-34 56-54 96-54s74 20 96 54" fill="none" stroke="#fff7d8" stroke-width="18" stroke-linecap="round"/>
</svg>