<svg xmlns="http://www.w3.org/2000/svg" viewBox="0 0 512 512">
  <defs>
    <linearGradient id="bg" x1="0" y1="0" x2="0" y2="1">
      <stop offset="0%" stop-color="#9bc9e9"/>
      <stop offset="100%" stop-color="#f6c24d"/>
    </linearGradient>
    <radialGradient id="sun" cx="50%" cy="50%" r="50%">
      <stop offset="0%" stop-color="#f4f4f4"/>
      <stop offset="100%" stop-color="#f5e042"/>
    </radialGradient>
  </defs>
  <rect x="0" y="0" width="512" height="512" rx="112" fill="url(#bg)"/>
  <g stroke="#fff8" stroke-width="12" stroke-linecap="round">
    <line x1="256" y1="84" x2="256" y2="152"/>
    <line x1="256" y1="360" x2="256" y2="428"/>
    <line x1="84" y1="256" x2="152" y2="256"/>
    <line x1="360" y1="256" x2="428" y2="256"/>
    <line x1="134" y1="134" x2="182" y2="182"/>
    <line x1="330" y1="330" x2="378" y2="378"/>
    <line x1="330" y1="182" x2="378" y2="134"/>
    <line x1="134" y1="378" x2="182" y2="330"/>
  </g>
  <g fill="#f8c11c">
    <path d="M256 88 276 172 236 172z"/>
    <path d="M256 424 236 340 276 340z"/>
    <path d="M88 256 172 236 172 276z"/>
    <path d="M424 256 340 276 340 236z"/>
    <path d="M137 137 196 188 166 217z"/>
    <path d="M375 375 316 324 346 295z"/>
    <path d="M375 137 346 217 316 188z"/>
    <path d="M137 375 166 295 196 324z"/>
  </g>
  <circle cx="256" cy="256" r="92" fill="url(#sun)" stroke="#fff" stroke-width="10"/>
</svg>
